<svg width="106" height="106" viewBox="0 0 106 106" fill="none" xmlns="http://www.w3.org/2000/svg">
<path d="M65.9979 63.4723L62.4624 67.0078L76.3358 80.8812L79.8714 77.3457L65.9979 63.4723Z" fill="#002950"/>
<path d="M94.0002 100.5C93.2777 100.5 92.5622 100.359 91.8947 100.082C91.2272 99.8061 90.6208 99.4008 90.1102 98.8897L74.2202 82.9997C73.1885 81.968 72.6089 80.5687 72.6089 79.1097C72.6089 77.6507 73.1885 76.2514 74.2202 75.2197C75.2519 74.188 76.6511 73.6084 78.1102 73.6084C79.5692 73.6084 80.9685 74.188 82.0002 75.2197L97.8902 91.1097C98.6597 91.8789 99.1838 92.859 99.3962 93.9262C99.6086 94.9933 99.4997 96.0995 99.0832 97.1047C98.6668 98.1099 97.9616 98.969 97.0568 99.5733C96.152 100.178 95.0882 100.5 94.0002 100.5Z" fill="#FFB42B"/>
<path d="M41.07 75.14C59.3341 75.14 74.14 60.3341 74.14 42.07C74.14 23.8059 59.3341 9 41.07 9C22.8059 9 8 23.8059 8 42.07C8 60.3341 22.8059 75.14 41.07 75.14Z" fill="white"/>
<path d="M41.07 78.14C33.936 78.14 26.9623 76.0246 21.0306 72.0611C15.0989 68.0977 10.4757 62.4643 7.74568 55.8734C5.01563 49.2825 4.30132 42.03 5.69309 35.0331C7.08486 28.0362 10.5202 21.6092 15.5647 16.5647C20.6092 11.5202 27.0362 8.08486 34.0331 6.69309C41.03 5.30132 48.2825 6.01563 54.8734 8.74568C61.4643 11.4757 67.0977 16.0989 71.0611 22.0306C75.0246 27.9623 77.14 34.936 77.14 42.07C77.1294 51.6331 73.3258 60.8015 66.5637 67.5637C59.8015 74.3258 50.6331 78.1294 41.07 78.14ZM41.07 12C35.1227 12 29.309 13.7636 24.364 17.0677C19.419 20.3719 15.5649 25.0682 13.289 30.5627C11.013 36.0573 10.4175 42.1034 11.5778 47.9364C12.7381 53.7694 15.6019 59.1274 19.8073 63.3327C24.0127 67.5381 29.3706 70.402 35.2036 71.5622C41.0367 72.7225 47.0827 72.127 52.5773 69.8511C58.0719 67.5751 62.7682 63.721 66.0723 58.776C69.3764 53.831 71.14 48.0173 71.14 42.07C71.1321 34.0974 67.9614 26.4536 62.3239 20.8161C56.6864 15.1786 49.0426 12.008 41.07 12Z" fill="#0089FF"/>
<path d="M53.6601 58.0002H28.4801C28.1248 58.0002 27.7839 57.8591 27.5326 57.6078C27.2813 57.3565 27.1401 57.0156 27.1401 56.6602V51.6602C27.1375 48.2432 28.4896 44.9645 30.9002 42.5427C33.3107 40.1208 36.5831 38.7535 40.0001 38.7402H42.1001C45.5197 38.7402 48.7994 40.098 51.2183 42.515C53.6372 44.9321 54.9975 48.2107 55.0001 51.6302V56.6302C55.0041 56.8087 54.9724 56.9862 54.9069 57.1522C54.8413 57.3183 54.7433 57.4696 54.6184 57.5972C54.4936 57.7248 54.3445 57.8262 54.18 57.8954C54.0154 57.9646 53.8387 58.0003 53.6601 58.0002Z" fill="#0089FF"/>
<path d="M41.0699 36.9996C39.6324 36.9996 38.2538 36.4285 37.2374 35.4121C36.2209 34.3956 35.6499 33.017 35.6499 31.5796V29.4796C35.6499 28.0421 36.2209 26.6635 37.2374 25.6471C38.2538 24.6306 39.6324 24.0596 41.0699 24.0596C42.5074 24.0596 43.886 24.6306 44.9024 25.6471C45.9189 26.6635 46.4899 28.0421 46.4899 29.4796V31.5796C46.4899 33.017 45.9189 34.3956 44.9024 35.4121C43.886 36.4285 42.5074 36.9996 41.0699 36.9996Z" fill="#0089FF"/>
<path d="M48 47H46V45H44V47H42V49H44V51H46V49H48V47Z" fill="white"/>
</svg>
