<svg width="106" height="106" viewBox="0 0 106 106" fill="none" xmlns="http://www.w3.org/2000/svg">
<path d="M94 17H12C9.79086 17 8 18.7909 8 21V85C8 87.2091 9.79086 89 12 89H94C96.2091 89 98 87.2091 98 85V21C98 18.7909 96.2091 17 94 17Z" fill="white"/>
<path d="M94 91H12C10.4087 91 8.88258 90.3679 7.75736 89.2426C6.63214 88.1174 6 86.5913 6 85V21C6 19.4087 6.63214 17.8826 7.75736 16.7574C8.88258 15.6321 10.4087 15 12 15H94C95.5913 15 97.1174 15.6321 98.2426 16.7574C99.3679 17.8826 100 19.4087 100 21V85C100 86.5913 99.3679 88.1174 98.2426 89.2426C97.1174 90.3679 95.5913 91 94 91ZM12 19C11.4696 19 10.9609 19.2107 10.5858 19.5858C10.2107 19.9609 10 20.4696 10 21V85C10 85.5304 10.2107 86.0391 10.5858 86.4142C10.9609 86.7893 11.4696 87 12 87H94C94.5304 87 95.0391 86.7893 95.4142 86.4142C95.7893 86.0391 96 85.5304 96 85V21C96 20.4696 95.7893 19.9609 95.4142 19.5858C95.0391 19.2107 94.5304 19 94 19H12Z" fill="#0089FF"/>
<path d="M40.48 31.6299C43.3974 31.6299 46.1953 32.7888 48.2582 34.8517C50.3211 36.9146 51.48 39.7125 51.48 42.6299V47.7799C51.48 50.6575 50.3369 53.4172 48.3021 55.452C46.2673 57.4868 43.5076 58.6299 40.63 58.6299H29.48V42.6299C29.48 39.7125 30.6389 36.9146 32.7018 34.8517C34.7647 32.7888 37.5626 31.6299 40.48 31.6299Z" fill="#D38D79"/>
<path d="M29.88 63.6299H40.71C45.2956 63.6299 49.6934 65.4515 52.9359 68.694C56.1784 71.9365 58 76.3343 58 80.9199V89.6299H18V75.5099C18 72.3591 19.2516 69.3374 21.4796 67.1095C23.7075 64.8815 26.7292 63.6299 29.88 63.6299Z" fill="#D0D8DE"/>
<path d="M43.48 57.6299H29.48V73.0699H43.48V57.6299Z" fill="#D38D79"/>
<path d="M29 50.6299C31.2091 50.6299 33 48.839 33 46.6299C33 44.4207 31.2091 42.6299 29 42.6299C26.7909 42.6299 25 44.4207 25 46.6299C25 48.839 26.7909 50.6299 29 50.6299Z" fill="#D38D79"/>
<path d="M48.6699 50.6299C47.7799 50.6299 46.9099 50.366 46.1699 49.8715C45.4298 49.377 44.8531 48.6742 44.5125 47.852C44.1719 47.0297 44.0828 46.1249 44.2564 45.252C44.43 44.3791 44.8586 43.5772 45.4879 42.9479C46.1173 42.3186 46.9191 41.89 47.792 41.7164C48.6649 41.5427 49.5697 41.6318 50.392 41.9724C51.2143 42.313 51.9171 42.8898 52.4115 43.6298C52.906 44.3698 53.1699 45.2399 53.1699 46.1299C53.1699 47.3234 52.6958 48.468 51.8519 49.3119C51.008 50.1558 49.8634 50.6299 48.6699 50.6299ZM48.6699 42.6299C47.9777 42.6299 47.301 42.8352 46.7254 43.2197C46.1499 43.6043 45.7013 44.151 45.4363 44.7905C45.1714 45.43 45.1021 46.1338 45.2372 46.8127C45.3722 47.4916 45.7056 48.1153 46.195 48.6048C46.6845 49.0942 47.3082 49.4276 47.9871 49.5626C48.666 49.6977 49.3698 49.6284 50.0093 49.3635C50.6489 49.0986 51.1955 48.65 51.5801 48.0744C51.9647 47.4988 52.1699 46.8221 52.1699 46.1299C52.1699 45.2016 51.8012 44.3114 51.1448 43.655C50.4884 42.9986 49.5982 42.6299 48.6699 42.6299Z" fill="#002950"/>
<path d="M38 50.6299C37.11 50.6299 36.24 50.366 35.4999 49.8715C34.7599 49.377 34.1831 48.6742 33.8425 47.852C33.5019 47.0297 33.4128 46.1249 33.5865 45.252C33.7601 44.3791 34.1887 43.5772 34.818 42.9479C35.4474 42.3186 36.2492 41.89 37.1221 41.7164C37.995 41.5427 38.8998 41.6318 39.7221 41.9724C40.5443 42.313 41.2471 42.8898 41.7416 43.6298C42.2361 44.3698 42.5 45.2399 42.5 46.1299C42.4974 47.3225 42.0224 48.4656 41.1791 49.3089C40.3357 50.1523 39.1927 50.6272 38 50.6299ZM38 42.6299C37.3078 42.6299 36.6311 42.8352 36.0555 43.2197C35.4799 43.6043 35.0313 44.151 34.7664 44.7905C34.5015 45.43 34.4322 46.1338 34.5673 46.8127C34.7023 47.4916 35.0356 48.1153 35.5251 48.6048C36.0146 49.0942 36.6383 49.4276 37.3172 49.5626C37.9961 49.6977 38.6999 49.6284 39.3394 49.3635C39.9789 49.0986 40.5256 48.65 40.9101 48.0744C41.2947 47.4988 41.5 46.8221 41.5 46.1299C41.5 45.2016 41.1313 44.3114 40.4749 43.655C39.8185 42.9986 38.9283 42.6299 38 42.6299Z" fill="#002950"/>
<path d="M29.2302 63.6299L40.7602 71.7199L43.6702 63.9999C43.6702 63.9999 50.2002 66.1799 50.2002 72.6199C50.2002 79.0599 41.8402 78.6199 38.2002 78.6199C34.5602 78.6199 29.2002 77.6199 29.2002 73.6199L29.2302 63.6299Z" fill="#D0D8DE"/>
<path d="M51.2301 90.6199H47.7501C47.6201 90.6186 47.4952 90.5687 47.4001 90.4799L32.7501 76.4099C32.6297 76.2944 32.5401 76.1507 32.4895 75.9917C32.4388 75.8328 32.4287 75.6637 32.4601 75.4999L33.1401 71.9999L29.0001 72.3199C28.8529 72.3321 28.7048 72.3115 28.5665 72.2596C28.4282 72.2078 28.303 72.1259 28.2001 72.0199C28.0973 71.9172 28.0181 71.7933 27.968 71.6569C27.9179 71.5204 27.8982 71.3747 27.9101 71.2299L28.5901 64.2299C28.6028 64.0989 28.6666 63.9782 28.7677 63.894C28.8688 63.8097 28.999 63.7687 29.1301 63.7799C29.1955 63.7849 29.2592 63.8029 29.3174 63.833C29.3757 63.863 29.4273 63.9044 29.4693 63.9548C29.5112 64.0051 29.5427 64.0634 29.5617 64.1261C29.5807 64.1888 29.587 64.2547 29.5801 64.3199L28.9101 71.3199L33.0501 70.9999C33.2038 70.9856 33.3587 71.007 33.5027 71.0625C33.6467 71.118 33.7759 71.2061 33.8801 71.3199C33.984 71.4348 34.0598 71.5724 34.1014 71.7216C34.1431 71.8709 34.1495 72.0277 34.1201 72.1799L33.4401 75.7299L48.0001 89.6199H50.6401L46.3501 72.3599C46.3127 72.2123 46.3094 72.0581 46.3406 71.9091C46.3718 71.76 46.4366 71.6201 46.5301 71.4999C46.622 71.3757 46.743 71.276 46.8826 71.2098C47.0221 71.1435 47.1758 71.1126 47.3301 71.1199H49.7801L44.3001 63.9299C44.2607 63.8774 44.2321 63.8176 44.2158 63.754C44.1995 63.6904 44.1959 63.6242 44.2052 63.5592C44.2144 63.4942 44.2364 63.4316 44.2699 63.3751C44.3034 63.3186 44.3476 63.2693 44.4001 63.2299C44.4527 63.1905 44.5124 63.1618 44.576 63.1455C44.6397 63.1292 44.7058 63.1256 44.7708 63.1349C44.8358 63.1442 44.8984 63.1662 44.9549 63.1996C45.0114 63.2331 45.0607 63.2774 45.1001 63.3299L50.5801 70.5399C50.6836 70.6829 50.7473 70.8508 50.7649 71.0264C50.7824 71.202 50.7532 71.3792 50.6801 71.5399C50.5969 71.7097 50.4673 71.8525 50.3062 71.9516C50.1451 72.0507 49.9593 72.1021 49.7701 72.0999H47.3201L51.7101 89.9999C51.7304 90.0719 51.7329 90.1478 51.7172 90.221C51.7015 90.2942 51.6682 90.3625 51.6201 90.4199C51.5746 90.4806 51.5158 90.5302 51.4482 90.5649C51.3806 90.5995 51.3061 90.6184 51.2301 90.6199Z" fill="#9FACB8"/>
<path d="M57.51 60.1396H68.65L68 90.3697H56L57.51 60.1396Z" fill="#D0D8DE"/>
<path d="M62.3302 90.0502C62.2158 90.0526 62.1042 90.0149 62.0147 89.9437C61.9252 89.8724 61.8635 89.7721 61.8402 89.6602C61.8402 89.6602 60.4902 83.7702 59.2602 79.7802C58.0302 75.7902 56.8902 74.0902 55.0602 72.1702C55.0136 72.1245 54.9766 72.0701 54.9513 72.01C54.9261 71.9499 54.9131 71.8854 54.9131 71.8202C54.9131 71.755 54.9261 71.6904 54.9513 71.6303C54.9766 71.5702 55.0136 71.5158 55.0602 71.4702C55.1066 71.4233 55.1619 71.3861 55.2229 71.3607C55.2838 71.3353 55.3492 71.3223 55.4152 71.3223C55.4812 71.3223 55.5465 71.3353 55.6074 71.3607C55.6684 71.3861 55.7237 71.4233 55.7702 71.4702C57.7102 73.4702 58.9302 75.3002 60.2102 79.4702C61.4402 83.4702 62.7902 89.3602 62.8002 89.4702C62.8302 89.5988 62.8082 89.734 62.7389 89.8465C62.6696 89.9589 62.5586 90.0393 62.4302 90.0702L62.3302 90.0502Z" fill="#9FACB8"/>
<path d="M29.4998 90.0503H29.4498C29.3844 90.0453 29.3207 90.0273 29.2625 89.9972C29.2042 89.9672 29.1526 89.9258 29.1106 89.8754C29.0687 89.8251 29.0373 89.7668 29.0182 89.7041C28.9992 89.6414 28.9929 89.5755 28.9998 89.5103L29.8198 80.1603C29.8349 80.0277 29.9004 79.906 30.0028 79.8203C30.1052 79.7347 30.2366 79.6917 30.3698 79.7003C30.4356 79.7065 30.4995 79.7258 30.5578 79.7569C30.6161 79.7879 30.6676 79.8303 30.7095 79.8814C30.7513 79.9326 30.7826 79.9915 30.8016 80.0548C30.8205 80.1181 30.8267 80.1846 30.8198 80.2503L29.9998 89.6003C29.9896 89.7249 29.9322 89.841 29.8392 89.9246C29.7462 90.0083 29.6248 90.0533 29.4998 90.0503Z" fill="#9FACB8"/>
<path d="M65.69 45.3804C65.8955 45.4227 66.0793 45.5362 66.2092 45.7008C66.3391 45.8655 66.4067 46.0707 66.4 46.2804L66.29 49.0004H66.42C66.42 49.0004 66.5 48.4604 66.55 48.2504C66.5726 48.1294 66.6259 48.0163 66.7047 47.9217C66.7834 47.8272 66.8851 47.7544 67 47.7104C67.3623 47.6604 67.7311 47.6911 68.08 47.8004C68.3075 47.8492 68.5108 47.9757 68.655 48.1582C68.7992 48.3407 68.8752 48.5678 68.87 48.8004L68.65 60.1704H57.51L57.62 55.3504L56.27 51.4404C56.1935 51.2229 56.1945 50.9856 56.2729 50.7687C56.3513 50.5519 56.5022 50.3687 56.7 50.2504C56.8173 50.1769 56.9486 50.1286 57.0856 50.1085C57.2225 50.0884 57.3622 50.0969 57.4957 50.1336C57.6291 50.1702 57.7536 50.2342 57.861 50.3215C57.9685 50.4087 58.0567 50.5173 58.12 50.6404L59.3 52.8504V46.1604C59.2995 45.8883 59.4025 45.6262 59.5883 45.4275C59.7741 45.2287 60.0286 45.1082 60.3 45.0904C60.5823 45.0739 60.8596 45.1699 61.0713 45.3573C61.283 45.5446 61.412 45.8082 61.43 46.0904V46.4504H61.58L61.69 45.4504C61.7264 45.1738 61.8621 44.9198 62.0719 44.7358C62.2816 44.5519 62.551 44.4504 62.83 44.4504C62.9811 44.4477 63.1311 44.4749 63.2717 44.5302C63.4122 44.5856 63.5405 44.6681 63.6491 44.773C63.7578 44.8779 63.8447 45.0032 63.9049 45.1418C63.9651 45.2803 63.9974 45.4293 64 45.5804V46.3404H64.11C64.11 46.3404 64.19 45.8204 64.24 45.6504C64.2831 45.5308 64.3618 45.4274 64.4655 45.3541C64.5692 45.2808 64.693 45.2411 64.82 45.2404C65.1135 45.2623 65.4045 45.3091 65.69 45.3804Z" fill="#D38D79"/>
<path d="M34.1598 29.6299H46.8098C48.0988 29.6299 49.3349 30.1419 50.2463 31.0533C51.1578 31.9648 51.6698 33.2009 51.6698 34.4899V40.9999H29.2998V34.4899C29.2998 33.2009 29.8118 31.9648 30.7233 31.0533C31.6347 30.1419 32.8709 29.6299 34.1598 29.6299Z" fill="#D0D8DE"/>
<path d="M43.2998 58.8001L40.4798 58.6101C40.4141 58.6051 40.35 58.5871 40.2912 58.5571C40.2325 58.5272 40.1802 58.486 40.1374 58.4358C40.0947 58.3856 40.0623 58.3275 40.0421 58.2647C40.0219 58.2019 40.0143 58.1358 40.0198 58.0701C40.0236 58.0048 40.0404 57.9409 40.0692 57.8822C40.0981 57.8235 40.1384 57.7712 40.1878 57.7283C40.2372 57.6855 40.2947 57.6529 40.3568 57.6326C40.419 57.6123 40.4846 57.6047 40.5498 57.6101L43.3598 57.8001C43.4924 57.8001 43.6196 57.8528 43.7133 57.9465C43.8071 58.0403 43.8598 58.1675 43.8598 58.3001C43.8598 58.4327 43.8071 58.5599 43.7133 58.6537C43.6196 58.7474 43.4924 58.8001 43.3598 58.8001H43.2998Z" fill="#002950"/>
<path d="M33.9998 46.6298C33.8882 46.632 33.7791 46.5968 33.6898 46.5298L29.1798 42.9998C29.1234 42.9615 29.0753 42.912 29.0386 42.8544C29.002 42.7968 28.9775 42.7324 28.9667 42.665C28.9559 42.5976 28.9591 42.5287 28.9759 42.4625C28.9928 42.3964 29.023 42.3344 29.0647 42.2804C29.1064 42.2263 29.1587 42.1814 29.2185 42.1484C29.2782 42.1154 29.3441 42.0949 29.412 42.0883C29.4799 42.0817 29.5485 42.089 29.6135 42.1099C29.6785 42.1308 29.7385 42.1648 29.7898 42.2098L34.3098 45.7098C34.4122 45.7923 34.4787 45.9113 34.4955 46.0417C34.5123 46.1721 34.478 46.304 34.3998 46.4098C34.3554 46.4756 34.296 46.5298 34.2264 46.5681C34.1569 46.6063 34.0792 46.6275 33.9998 46.6298Z" fill="#002950"/>
<path d="M60.2698 54.9101C60.1839 54.9087 60.0996 54.8861 60.0246 54.8442C59.9495 54.8023 59.886 54.7425 59.8398 54.6701L58.8398 53.0801C58.7728 52.9656 58.7531 52.8294 58.7848 52.7006C58.8166 52.5718 58.8973 52.4604 59.0098 52.3901C59.1243 52.3231 59.2604 52.3034 59.3893 52.3351C59.5181 52.3669 59.6295 52.4476 59.6998 52.5601L60.6998 54.1501C60.7345 54.2051 60.7578 54.2664 60.7686 54.3306C60.7793 54.3947 60.7771 54.4603 60.7622 54.5236C60.7473 54.5869 60.72 54.6466 60.6818 54.6992C60.6436 54.7518 60.5953 54.7963 60.5398 54.8301C60.4593 54.8821 60.3656 54.9098 60.2698 54.9101Z" fill="#002950"/>
<path d="M44.68 45.2197H41.98V46.2197H44.68V45.2197Z" fill="#002950"/>
<path d="M94 91H12C10.4087 91 8.88258 90.3679 7.75736 89.2426C6.63214 88.1174 6 86.5913 6 85V21C6 19.4087 6.63214 17.8826 7.75736 16.7574C8.88258 15.6321 10.4087 15 12 15H94C95.5913 15 97.1174 15.6321 98.2426 16.7574C99.3679 17.8826 100 19.4087 100 21V85C100 86.5913 99.3679 88.1174 98.2426 89.2426C97.1174 90.3679 95.5913 91 94 91ZM12 19C11.4696 19 10.9609 19.2107 10.5858 19.5858C10.2107 19.9609 10 20.4696 10 21V85C10 85.5304 10.2107 86.0391 10.5858 86.4142C10.9609 86.7893 11.4696 87 12 87H94C94.5304 87 95.0391 86.7893 95.4142 86.4142C95.7893 86.0391 96 85.5304 96 85V21C96 20.4696 95.7893 19.9609 95.4142 19.5858C95.0391 19.2107 94.5304 19 94 19H12Z" fill="#0089FF"/>
<path d="M98 23H8V21C8 19.9391 8.42143 18.9217 9.17157 18.1716C9.92172 17.4214 10.9391 17 12 17H94C95.0609 17 96.0783 17.4214 96.8284 18.1716C97.5786 18.9217 98 19.9391 98 21V23Z" fill="#0089FF"/>
<path d="M90.6699 21C91.4983 21 92.1699 20.3284 92.1699 19.5C92.1699 18.6716 91.4983 18 90.6699 18C89.8415 18 89.1699 18.6716 89.1699 19.5C89.1699 20.3284 89.8415 21 90.6699 21Z" fill="white"/>
<path d="M82.6699 21C83.4983 21 84.1699 20.3284 84.1699 19.5C84.1699 18.6716 83.4983 18 82.6699 18C81.8415 18 81.1699 18.6716 81.1699 19.5C81.1699 20.3284 81.8415 21 82.6699 21Z" fill="white"/>
<path d="M74.6699 21C75.4983 21 76.1699 20.3284 76.1699 19.5C76.1699 18.6716 75.4983 18 74.6699 18C73.8415 18 73.1699 18.6716 73.1699 19.5C73.1699 20.3284 73.8415 21 74.6699 21Z" fill="white"/>
<path d="M101 34H79C77.8954 34 77 34.8954 77 36V48C77 49.1046 77.8954 50 79 50H101C102.105 50 103 49.1046 103 48V36C103 34.8954 102.105 34 101 34Z" fill="#FFB42B"/>
<path d="M77 48.5V53.09C77.0008 53.2878 77.0603 53.4809 77.1708 53.6448C77.2814 53.8088 77.4381 53.9363 77.6211 54.0113C77.8042 54.0862 78.0053 54.1052 78.1991 54.0658C78.3929 54.0264 78.5707 53.9304 78.71 53.79L84 48.5H77Z" fill="#FFB42B"/>
<path d="M100 37.5H80V38.5H100V37.5Z" fill="white"/>
<path d="M100 41.5H80V42.5H100V41.5Z" fill="white"/>
<path d="M95 45.5H80V46.5H95V45.5Z" fill="white"/>
</svg>
