<svg width="60" height="60" viewBox="0 0 60 60" fill="none" xmlns="http://www.w3.org/2000/svg">
<path d="M55 17.48V14C55 12.4087 54.3679 10.8826 53.2426 9.75736C52.1174 8.63214 50.5913 8 49 8H11C9.4087 8 7.88258 8.63214 6.75736 9.75736C5.63214 10.8826 5 12.4087 5 14V17.48H55Z" fill="#FFB74D"/>
<path d="M55.16 20.4805L55 49.0005C55 50.5918 54.3679 52.1179 53.2426 53.2431C52.1174 54.3683 50.5913 55.0005 49 55.0005H11C9.4087 55.0005 7.88258 54.3683 6.75736 53.2431C5.63214 52.1179 5 50.5918 5 49.0005V20.4805H55.16Z" fill="#FFB74D"/>
<path d="M30 50C36.6274 50 42 44.6274 42 38C42 31.3726 36.6274 26 30 26C23.3726 26 18 31.3726 18 38C18 44.6274 23.3726 50 30 50Z" fill="white"/>
<path d="M37 35.5H32.5V31H27.5V35.5H23V40.5H27.5V45H32.5V40.5H37V35.5Z" fill="#0089FF"/>
</svg>
