<svg width="106" height="106" viewBox="0 0 106 106" fill="none" xmlns="http://www.w3.org/2000/svg">
<path d="M91.23 53.12C91.23 79.88 53 99 53 99C53 99 14.77 79.88 14.77 53.12V14.88C14.77 14.88 34.4 7 53 7C70.94 7 91.23 14.88 91.23 14.88V53.12Z" fill="white"/>
<path d="M52.9998 101C52.6909 101 52.3863 100.928 52.1098 100.79C50.4998 99.99 12.7698 80.79 12.7698 53.12V14.88C12.763 14.4795 12.8766 14.0862 13.0959 13.751C13.3152 13.4158 13.6301 13.1542 13.9998 13C14.8198 12.67 34.2098 5 52.9998 5C71.1098 5 91.1198 12.69 91.9998 13C92.3757 13.145 92.699 13.4002 92.9274 13.7321C93.1558 14.064 93.2786 14.4571 93.2798 14.86V53.12C93.2798 80.8 55.5398 99.99 53.9298 100.79C53.6413 100.934 53.3222 101.006 52.9998 101ZM16.7698 16.26V53.12C16.7698 76.12 47.3298 93.69 52.9998 96.74C58.6698 93.68 89.2398 76.11 89.2398 53.12V16.28C84.5498 14.6 67.8198 9 52.9998 9C37.6598 9 21.3398 14.58 16.7698 16.26Z" fill="#0089FF"/>
<path d="M53 94.31C52.8283 94.3095 52.6595 94.2647 52.51 94.18C44.59 89.71 18.77 73.51 18.77 53.12V18.38C18.7688 18.1716 18.8327 17.968 18.9528 17.7976C19.0729 17.6273 19.2433 17.4988 19.44 17.43C25 15.5 39.51 11 53 11C66 11 80.81 15.52 86.55 17.46C86.7487 17.5271 86.9212 17.6549 87.0432 17.8254C87.1652 17.9958 87.2306 18.2004 87.23 18.41V53.12C87.23 65.36 77.69 76.12 69.68 82.92C64.6476 87.1717 59.2272 90.9416 53.49 94.18C53.3406 94.2647 53.1718 94.3095 53 94.31ZM20.77 19.09V53.09C20.77 72 44.77 87.43 53 92.09C58.4403 89.0005 63.5882 85.4224 68.38 81.4C76.07 74.83 85.23 64.6 85.23 53.12V19.12C79.16 17.12 65.26 13 53 13C40.32 13 26.69 17.09 20.77 19.09Z" fill="#FFB42B"/>
<path d="M61.4098 58.1904H44.5898V75.7904C44.5906 75.9149 44.6245 76.037 44.6882 76.144C44.7518 76.251 44.8428 76.3391 44.9518 76.3992C45.0608 76.4593 45.1839 76.4893 45.3084 76.486C45.4328 76.4827 45.5542 76.4462 45.6598 76.3804L52.9998 71.8804L60.3398 76.3804C60.4455 76.4462 60.5668 76.4827 60.6913 76.486C60.8158 76.4893 60.9388 76.4593 61.0479 76.3992C61.1569 76.3391 61.2479 76.251 61.3115 76.144C61.3752 76.037 61.4091 75.9149 61.4098 75.7904V58.1904Z" fill="#0089FF"/>
<path d="M72.7602 43.12C72.7602 45.12 70.9502 46.89 70.3402 48.73C69.7302 50.57 70.1302 53.1 68.9602 54.73C67.7902 56.36 65.3102 56.67 63.6902 57.83C62.0702 58.99 61.0002 61.22 59.0802 61.83C57.1602 62.44 55.0802 61.26 53.0002 61.26C50.9202 61.26 48.7602 62.43 46.9102 61.83C45.0602 61.23 43.9102 58.97 42.3002 57.83C40.6902 56.69 38.2102 56.33 37.0302 54.73C35.8502 53.13 36.2802 50.73 35.6502 48.73C35.0202 46.73 33.2402 45.16 33.2402 43.12C33.2402 41.08 35.0502 39.35 35.6502 37.51C36.2502 35.67 35.8702 33.15 37.0402 31.56C38.2102 29.97 40.6902 29.63 42.3002 28.47C43.9102 27.31 45.0002 25.08 46.9102 24.47C48.8202 23.86 51.0002 25 53.0002 25C55.0002 25 57.2402 23.84 59.0802 24.43C60.9202 25.02 62.0802 27.29 63.6902 28.43C65.3002 29.57 67.7902 30 69.0002 31.56C70.2102 33.12 69.7602 35.61 70.3802 37.51C71.0002 39.41 72.7602 41.08 72.7602 43.12Z" fill="#FFB42B"/>
<path d="M53 55.4101C59.7875 55.4101 65.29 49.9077 65.29 43.1201C65.29 36.3325 59.7875 30.8301 53 30.8301C46.2124 30.8301 40.71 36.3325 40.71 43.1201C40.71 49.9077 46.2124 55.4101 53 55.4101Z" fill="white"/>
<path d="M59.7 41.25H55V36.54H51V41.25H46.29V45.25H51V49.95H55V45.25H59.7V41.25Z" fill="#002950"/>
</svg>
