<svg width="106" height="106" viewBox="0 0 106 106" fill="none" xmlns="http://www.w3.org/2000/svg">
<path d="M80.7807 10.0098H25.2207C21.907 10.0098 19.2207 12.6961 19.2207 16.0098V89.9898C19.2207 93.3035 21.907 95.9898 25.2207 95.9898H80.7807C84.0944 95.9898 86.7807 93.3035 86.7807 89.9898V16.0098C86.7807 12.6961 84.0944 10.0098 80.7807 10.0098Z" fill="white"/>
<path d="M80.7807 99H25.2207C22.8338 99 20.5446 98.0518 18.8567 96.364C17.1689 94.6761 16.2207 92.3869 16.2207 90V16C16.2207 13.6131 17.1689 11.3239 18.8567 9.63604C20.5446 7.94821 22.8338 7 25.2207 7H80.7807C83.1676 7 85.4568 7.94821 87.1447 9.63604C88.8325 11.3239 89.7807 13.6131 89.7807 16V90C89.7807 92.3869 88.8325 94.6761 87.1447 96.364C85.4568 98.0518 83.1676 99 80.7807 99ZM25.2207 13C24.4251 13 23.662 13.3161 23.0994 13.8787C22.5368 14.4413 22.2207 15.2044 22.2207 16V90C22.2207 90.7956 22.5368 91.5587 23.0994 92.1213C23.662 92.6839 24.4251 93 25.2207 93H80.7807C81.5763 93 82.3394 92.6839 82.902 92.1213C83.4646 91.5587 83.7807 90.7956 83.7807 90V16C83.7807 15.2044 83.4646 14.4413 82.902 13.8787C82.3394 13.3161 81.5763 13 80.7807 13H25.2207Z" fill="#0089FF"/>
<path d="M41.7898 23.3203H33.5098C32.4052 23.3203 31.5098 24.2157 31.5098 25.3203V33.6003C31.5098 34.7049 32.4052 35.6003 33.5098 35.6003H41.7898C42.8943 35.6003 43.7898 34.7049 43.7898 33.6003V25.3203C43.7898 24.2157 42.8943 23.3203 41.7898 23.3203Z" fill="#CED8DF"/>
<path d="M41.7898 46.8604H33.5098C32.4052 46.8604 31.5098 47.7558 31.5098 48.8604V57.1404C31.5098 58.2449 32.4052 59.1404 33.5098 59.1404H41.7898C42.8943 59.1404 43.7898 58.2449 43.7898 57.1404V48.8604C43.7898 47.7558 42.8943 46.8604 41.7898 46.8604Z" fill="#CED8DF"/>
<path d="M41.7898 70.4004H33.5098C32.4052 70.4004 31.5098 71.2958 31.5098 72.4004V80.6804C31.5098 81.785 32.4052 82.6804 33.5098 82.6804H41.7898C42.8943 82.6804 43.7898 81.785 43.7898 80.6804V72.4004C43.7898 71.2958 42.8943 70.4004 41.7898 70.4004Z" fill="#FFB74D"/>
<path d="M72.4392 25.4004H50.9492V28.4004H72.4392V25.4004Z" fill="#CED8DF"/>
<path d="M63.3492 30.5195H50.9492V33.5195H63.3492V30.5195Z" fill="#CED8DF"/>
<path d="M72.4392 48.9404H50.9492V51.9404H72.4392V48.9404Z" fill="#CED8DF"/>
<path d="M63.3492 54.0596H50.9492V57.0596H63.3492V54.0596Z" fill="#CED8DF"/>
<path d="M72.4392 72.4805H50.9492V75.4805H72.4392V72.4805Z" fill="#FFB74D"/>
<path d="M63.3492 77.5996H50.9492V80.5996H63.3492V77.5996Z" fill="#FFB74D"/>
<path d="M38.6806 80.0896C38.2836 80.086 37.9035 79.9282 37.6206 79.6496L34.3506 76.3796C34.0721 76.097 33.916 75.7163 33.916 75.3196C33.916 74.9229 34.0721 74.5421 34.3506 74.2596C34.4892 74.1193 34.6543 74.0079 34.8362 73.9319C35.0182 73.8559 35.2134 73.8167 35.4106 73.8167C35.6078 73.8167 35.8031 73.8559 35.985 73.9319C36.167 74.0079 36.332 74.1193 36.4706 74.2596L38.6806 76.4696L44.5806 70.5796C44.7192 70.4393 44.8843 70.3279 45.0662 70.2519C45.2482 70.1759 45.4434 70.1367 45.6406 70.1367C45.8378 70.1367 46.033 70.1759 46.215 70.2519C46.397 70.3279 46.562 70.4393 46.7006 70.5796C46.9791 70.8621 47.1352 71.2429 47.1352 71.6396C47.1352 72.0363 46.9791 72.417 46.7006 72.6996L39.7006 79.6996C39.4202 79.9506 39.057 80.0895 38.6806 80.0896Z" fill="#002950"/>
</svg>
