<svg width="106" height="106" viewBox="0 0 106 106" fill="none" xmlns="http://www.w3.org/2000/svg">
<path d="M95 19H11C8.79086 19 7 20.7909 7 23V83C7 85.2091 8.79086 87 11 87H95C97.2091 87 99 85.2091 99 83V23C99 20.7909 97.2091 19 95 19Z" fill="white" stroke="#0089FF" stroke-width="4" stroke-linecap="round" stroke-linejoin="round"/>
<path d="M76.7653 17.7536L22.4302 86.1602L25.5623 88.648L79.8975 20.2414L76.7653 17.7536Z" fill="#E0F2FF"/>
<path d="M98 35H7V39H98V35Z" fill="#E0F2FF"/>
<path d="M98 51H7V55H98V51Z" fill="#E0F2FF"/>
<path d="M98 71H8V75H98V71Z" fill="#E0F2FF"/>
<path d="M24 19H20V37H24V19Z" fill="#E0F2FF"/>
<path d="M77 74H39.27C38.7056 73.9993 38.1528 73.8394 37.6752 73.5387C37.1976 73.238 36.8145 72.8087 36.57 72.3C36.3237 71.79 36.2268 71.2207 36.2905 70.658C36.3542 70.0952 36.5759 69.562 36.93 69.12L60.61 39.63C60.7292 39.483 60.8043 39.3053 60.8265 39.1173C60.8487 38.9294 60.8171 38.739 60.7354 38.5683C60.6537 38.3976 60.5253 38.2536 60.365 38.153C60.2047 38.0524 60.0192 37.9994 59.83 38H39C38.7348 38 38.4804 37.8946 38.2929 37.7071C38.1053 37.5196 38 37.2652 38 37C38 36.7348 38.1053 36.4804 38.2929 36.2929C38.4804 36.1054 38.7348 36 39 36H59.83C60.3959 35.9996 60.9504 36.1593 61.4294 36.4606C61.9085 36.7619 62.2925 37.1926 62.5372 37.7029C62.7819 38.2132 62.8773 38.7823 62.8123 39.3445C62.7473 39.9066 62.5246 40.439 62.17 40.88L38.49 70.37C38.372 70.5173 38.2981 70.6951 38.2768 70.8827C38.2556 71.0702 38.2879 71.26 38.37 71.43C38.451 71.6002 38.5785 71.744 38.7378 71.8448C38.897 71.9457 39.0815 71.9995 39.27 72H77C77.2652 72 77.5195 72.1054 77.7071 72.2929C77.8946 72.4804 78 72.7348 78 73C78 73.2652 77.8946 73.5196 77.7071 73.7071C77.5195 73.8946 77.2652 74 77 74Z" fill="#002950"/>
<path d="M95 19H11C8.79086 19 7 20.7909 7 23V83C7 85.2091 8.79086 87 11 87H95C97.2091 87 99 85.2091 99 83V23C99 20.7909 97.2091 19 95 19Z" stroke="#0089FF" stroke-width="4" stroke-linecap="round" stroke-linejoin="round"/>
<path d="M38.9998 37.4703C38.8192 37.4736 38.6411 37.4279 38.4844 37.3381C38.3277 37.2483 38.1983 37.1177 38.1098 36.9603L32.1098 26.5103C31.4045 25.2944 31.032 23.9141 31.0298 22.5084C31.0276 21.1027 31.3959 19.7213 32.0975 18.5032C32.7991 17.2851 33.8092 16.2734 35.0262 15.5699C36.2432 14.8665 37.6241 14.4961 39.0298 14.4961C40.4355 14.4961 41.8163 14.8665 43.0333 15.5699C44.2503 16.2734 45.2605 17.2851 45.9621 18.5032C46.6637 19.7213 47.0319 21.1027 47.0298 22.5084C47.0276 23.9141 46.6551 25.2944 45.9498 26.5103L39.8898 37.0003C39.7962 37.1503 39.6646 37.2728 39.5082 37.3554C39.3519 37.438 39.1764 37.4776 38.9998 37.4703Z" fill="#FFB42B"/>
<path d="M38.9999 25.1102C40.5739 25.1102 41.8499 23.8342 41.8499 22.2602C41.8499 20.6861 40.5739 19.4102 38.9999 19.4102C37.4259 19.4102 36.1499 20.6861 36.1499 22.2602C36.1499 23.8342 37.4259 25.1102 38.9999 25.1102Z" fill="white"/>
<path d="M77 72.9395C76.8194 72.9428 76.6413 72.8971 76.4846 72.8073C76.3279 72.7175 76.1985 72.587 76.11 72.4295L70.08 61.9995C69.3747 60.7836 69.0022 59.4033 69 57.9976C68.9979 56.592 69.3661 55.2105 70.0677 53.9924C70.7693 52.7744 71.7795 51.7627 72.9965 51.0592C74.2135 50.3557 75.5943 49.9854 77 49.9854C78.4057 49.9854 79.7866 50.3557 81.0035 51.0592C82.2205 51.7627 83.2307 52.7744 83.9323 53.9924C84.6339 55.2105 85.0022 56.592 85 57.9976C84.9978 59.4033 84.6253 60.7836 83.92 61.9995L77.92 72.4495C77.8265 72.6079 77.6912 72.7374 77.5289 72.8239C77.3666 72.9103 77.1836 72.9503 77 72.9395Z" fill="#FFB42B"/>
<path d="M76.9999 60.5799C78.5739 60.5799 79.8499 59.3039 79.8499 57.7299C79.8499 56.1559 78.5739 54.8799 76.9999 54.8799C75.4259 54.8799 74.1499 56.1559 74.1499 57.7299C74.1499 59.3039 75.4259 60.5799 76.9999 60.5799Z" fill="white"/>
</svg>
