<svg width="60" height="60" viewBox="0 0 60 60" fill="none" xmlns="http://www.w3.org/2000/svg">
<path d="M46.9293 45.11L36.7393 27.45C36.2413 26.6009 35.9789 25.6343 35.9793 24.65V20.94H37.4893C37.6838 20.9564 37.8795 20.9323 38.0642 20.8691C38.2489 20.806 38.4184 20.7052 38.5621 20.5731C38.7058 20.4411 38.8205 20.2806 38.899 20.1019C38.9774 19.9232 39.0179 19.7302 39.0179 19.535C39.0179 19.3398 38.9774 19.1468 38.899 18.9681C38.8205 18.7894 38.7058 18.629 38.5621 18.4969C38.4184 18.3648 38.2489 18.264 38.0642 18.2009C37.8795 18.1377 37.6838 18.1136 37.4893 18.13H22.4893C22.2948 18.1136 22.0991 18.1377 21.9144 18.2009C21.7297 18.264 21.5602 18.3648 21.4165 18.4969C21.2728 18.629 21.1581 18.7894 21.0796 18.9681C21.0012 19.1468 20.9607 19.3398 20.9607 19.535C20.9607 19.7302 21.0012 19.9232 21.0796 20.1019C21.1581 20.2806 21.2728 20.4411 21.4165 20.5731C21.5602 20.7052 21.7297 20.806 21.9144 20.8691C22.0991 20.9323 22.2948 20.9564 22.4893 20.94H23.9993V24.65C23.9986 25.6373 23.7363 26.6069 23.2393 27.46L13.0693 45.11C12.3744 46.3156 12.009 47.6827 12.0098 49.0742C12.0105 50.4657 12.3774 51.8325 13.0735 53.0373C13.7697 54.2421 14.7706 55.2426 15.9757 55.9381C17.1809 56.6337 18.5478 56.9999 19.9393 57H40.0593C41.4508 56.9999 42.8177 56.6337 44.0229 55.9381C45.228 55.2426 46.229 54.2421 46.9251 53.0373C47.6212 51.8325 47.9881 50.4657 47.9888 49.0742C47.9896 47.6827 47.6242 46.3156 46.9293 45.11Z" fill="#FFB74D"/>
<path d="M25.6094 15C28.0947 15 30.1094 12.9853 30.1094 10.5C30.1094 8.01472 28.0947 6 25.6094 6C23.1241 6 21.1094 8.01472 21.1094 10.5C21.1094 12.9853 23.1241 15 25.6094 15Z" fill="#0089FF"/>
<path d="M31 30C31.5523 30 32 29.5523 32 29C32 28.4477 31.5523 28 31 28C30.4477 28 30 28.4477 30 29C30 29.5523 30.4477 30 31 30Z" fill="white"/>
<path d="M36.5293 45C38.1862 45 39.5293 43.6569 39.5293 42C39.5293 40.3431 38.1862 39 36.5293 39C34.8724 39 33.5293 40.3431 33.5293 42C33.5293 43.6569 34.8724 45 36.5293 45Z" fill="white"/>
<path d="M23.6094 39.5C24.7139 39.5 25.6094 38.6046 25.6094 37.5C25.6094 36.3954 24.7139 35.5 23.6094 35.5C22.5048 35.5 21.6094 36.3954 21.6094 37.5C21.6094 38.6046 22.5048 39.5 23.6094 39.5Z" fill="white"/>
<path d="M35.5 16C36.3284 16 37 15.3284 37 14.5C37 13.6716 36.3284 13 35.5 13C34.6716 13 34 13.6716 34 14.5C34 15.3284 34.6716 16 35.5 16Z" fill="#0089FF"/>
<path d="M34.5 8C35.8807 8 37 6.88071 37 5.5C37 4.11929 35.8807 3 34.5 3C33.1193 3 32 4.11929 32 5.5C32 6.88071 33.1193 8 34.5 8Z" fill="#0089FF"/>
<path d="M41 53H19C18.6022 53 18.2206 52.842 17.9393 52.5607C17.658 52.2794 17.5 51.8978 17.5 51.5C17.5 51.1022 17.658 50.7206 17.9393 50.4393C18.2206 50.158 18.6022 50 19 50H41C41.3978 50 41.7794 50.158 42.0607 50.4393C42.342 50.7206 42.5 51.1022 42.5 51.5C42.5 51.8978 42.342 52.2794 42.0607 52.5607C41.7794 52.842 41.3978 53 41 53Z" fill="white"/>
</svg>
