<svg width="106" height="106" viewBox="0 0 106 106" fill="none" xmlns="http://www.w3.org/2000/svg">
<path d="M81.4001 5H24.6001C23.6669 5 22.7428 5.18398 21.8807 5.54141C21.0187 5.89884 20.2355 6.42272 19.5761 7.08308C18.9167 7.74343 18.3939 8.52731 18.0377 9.38988C17.6814 10.2524 17.4988 11.1768 17.5001 12.11V93.81C17.4882 94.7499 17.663 95.6829 18.0145 96.5547C18.366 97.4265 18.887 98.2199 19.5475 98.8887C20.208 99.5576 20.9947 100.089 21.8621 100.451C22.7294 100.813 23.6601 101 24.6001 101H81.4001C82.3333 101 83.2574 100.816 84.1194 100.459C84.9815 100.101 85.7647 99.5773 86.4241 98.9169C87.0835 98.2566 87.6063 97.4727 87.9625 96.6101C88.3187 95.7476 88.5014 94.8232 88.5001 93.89V12.15C88.5067 11.2134 88.3279 10.2848 87.974 9.41759C87.6202 8.5504 87.0983 7.76179 86.4383 7.09719C85.7784 6.43259 84.9934 5.90513 84.1287 5.5452C83.2641 5.18527 82.3367 4.99998 81.4001 5Z" fill="#0089FF"/>
<path d="M79.0498 14.5303H26.9998C25.7444 14.5303 24.5402 15.0283 23.6516 15.9151C22.763 16.8018 22.2624 18.0049 22.2598 19.2603V84.3403C22.2598 85.5974 22.7592 86.803 23.6481 87.692C24.537 88.5809 25.7426 89.0803 26.9998 89.0803H79.0498C80.3069 89.0803 81.5125 88.5809 82.4015 87.692C83.2904 86.803 83.7898 85.5974 83.7898 84.3403V19.2603C83.7871 18.0049 83.2866 16.8018 82.3979 15.9151C81.5093 15.0283 80.3052 14.5303 79.0498 14.5303Z" fill="white"/>
<path d="M30.52 24.3002C30.5227 23.8193 30.7156 23.3589 31.0566 23.0198C31.3976 22.6806 31.8591 22.4902 32.34 22.4902H73.71C74.1901 22.4902 74.6504 22.6809 74.9899 23.0204C75.3293 23.3598 75.52 23.8202 75.52 24.3002V79.1202C75.52 79.6507 75.3093 80.1594 74.9342 80.5344C74.5592 80.9095 74.0504 81.1202 73.52 81.1202H32.52C31.9896 81.1202 31.4809 80.9095 31.1058 80.5344C30.7307 80.1594 30.52 79.6507 30.52 79.1202V24.3002Z" fill="#F7F9FB"/>
<path d="M58.3098 30.5898H51.8398C51.5746 30.5898 51.3203 30.4845 51.1327 30.297C50.9452 30.1094 50.8398 29.8551 50.8398 29.5898C50.8398 29.3246 50.9452 29.0703 51.1327 28.8827C51.3203 28.6952 51.5746 28.5898 51.8398 28.5898H58.3098C58.5751 28.5898 58.8294 28.6952 59.0169 28.8827C59.2045 29.0703 59.3098 29.3246 59.3098 29.5898C59.3098 29.8551 59.2045 30.1094 59.0169 30.297C58.8294 30.4845 58.5751 30.5898 58.3098 30.5898Z" fill="#FFB42B"/>
<path d="M64.1698 35.3301H51.8398C51.5746 35.3301 51.3203 35.2247 51.1327 35.0372C50.9452 34.8496 50.8398 34.5953 50.8398 34.3301C50.8398 34.0649 50.9452 33.8105 51.1327 33.623C51.3203 33.4354 51.5746 33.3301 51.8398 33.3301H64.1698C64.4351 33.3301 64.6894 33.4354 64.8769 33.623C65.0645 33.8105 65.1698 34.0649 65.1698 34.3301C65.1698 34.5953 65.0645 34.8496 64.8769 35.0372C64.6894 35.2247 64.4351 35.3301 64.1698 35.3301Z" fill="#FFB42B"/>
<path d="M70.7902 56.46H36.4502C36.185 56.46 35.9306 56.3546 35.7431 56.1671C35.5556 55.9795 35.4502 55.7252 35.4502 55.46C35.4502 55.1947 35.5556 54.9404 35.7431 54.7529C35.9306 54.5653 36.185 54.46 36.4502 54.46H70.7902C71.0554 54.46 71.3098 54.5653 71.4973 54.7529C71.6848 54.9404 71.7902 55.1947 71.7902 55.46C71.7902 55.7252 71.6848 55.9795 71.4973 56.1671C71.3098 56.3546 71.0554 56.46 70.7902 56.46Z" fill="#D0D8DE"/>
<path d="M70.7902 49H36.4502C36.185 49 35.9306 48.8946 35.7431 48.7071C35.5556 48.5196 35.4502 48.2652 35.4502 48C35.4502 47.7348 35.5556 47.4804 35.7431 47.2929C35.9306 47.1054 36.185 47 36.4502 47H70.7902C71.0554 47 71.3098 47.1054 71.4973 47.2929C71.6848 47.4804 71.7902 47.7348 71.7902 48C71.7902 48.2652 71.6848 48.5196 71.4973 48.7071C71.3098 48.8946 71.0554 49 70.7902 49Z" fill="#D0D8DE"/>
<path d="M70.7902 63.9199H36.4502C36.185 63.9199 35.9306 63.8146 35.7431 63.627C35.5556 63.4395 35.4502 63.1851 35.4502 62.9199C35.4502 62.6547 35.5556 62.4004 35.7431 62.2128C35.9306 62.0253 36.185 61.9199 36.4502 61.9199H70.7902C71.0554 61.9199 71.3098 62.0253 71.4973 62.2128C71.6848 62.4004 71.7902 62.6547 71.7902 62.9199C71.7902 63.1851 71.6848 63.4395 71.4973 63.627C71.3098 63.8146 71.0554 63.9199 70.7902 63.9199Z" fill="#D0D8DE"/>
<path d="M47.0002 71.3799H36.4502C36.185 71.3799 35.9306 71.2745 35.7431 71.087C35.5556 70.8995 35.4502 70.6451 35.4502 70.3799C35.4502 70.1147 35.5556 69.8603 35.7431 69.6728C35.9306 69.4852 36.185 69.3799 36.4502 69.3799H47.0002C47.2654 69.3799 47.5198 69.4852 47.7073 69.6728C47.8948 69.8603 48.0002 70.1147 48.0002 70.3799C48.0002 70.6451 47.8948 70.8995 47.7073 71.087C47.5198 71.2745 47.2654 71.3799 47.0002 71.3799Z" fill="#D0D8DE"/>
<path d="M53 98C53.5933 98 54.1734 97.824 54.6667 97.4944C55.1601 97.1648 55.5446 96.6962 55.7716 96.148C55.9987 95.5999 56.0581 94.9967 55.9424 94.4147C55.8266 93.8328 55.5409 93.2982 55.1213 92.8787C54.7018 92.4591 54.1672 92.1734 53.5853 92.0576C53.0033 91.9419 52.4001 92.0013 51.852 92.2284C51.3038 92.4554 50.8352 92.8399 50.5056 93.3333C50.1759 93.8266 50 94.4067 50 95C50 95.7956 50.3161 96.5587 50.8787 97.1213C51.4413 97.6839 52.2044 98 53 98Z" fill="#00294D"/>
<path d="M41.1798 37.88C44.4493 37.88 47.0998 35.2296 47.0998 31.96C47.0998 28.6905 44.4493 26.04 41.1798 26.04C37.9102 26.04 35.2598 28.6905 35.2598 31.96C35.2598 35.2296 37.9102 37.88 41.1798 37.88Z" fill="#FFB42B"/>
</svg>
