<svg width="106" height="106" viewBox="0 0 106 106" fill="none" xmlns="http://www.w3.org/2000/svg">
<path d="M86 9.08984H24C20.6863 9.08984 18 11.7761 18 15.0898V93.9998C18 97.3136 20.6863 99.9998 24 99.9998H86C89.3137 99.9998 92 97.3136 92 93.9998V15.0898C92 11.7761 89.3137 9.08984 86 9.08984Z" fill="#0089FF"/>
<path d="M26.4694 13.3096H83.5294C83.8073 13.3096 84.0825 13.3645 84.3392 13.4711C84.5958 13.5778 84.8289 13.7341 85.0249 13.9311C85.221 14.1281 85.3762 14.3619 85.4817 14.619C85.5871 14.8762 85.6407 15.1516 85.6394 15.4296V76.3496L74.6394 87.3496H26.4694C25.9098 87.3496 25.3731 87.1273 24.9774 86.7316C24.5817 86.3359 24.3594 85.7992 24.3594 85.2396V15.4296C24.3581 15.1516 24.4117 14.8762 24.5171 14.619C24.6226 14.3619 24.7778 14.1281 24.9739 13.9311C25.1699 13.7341 25.403 13.5778 25.6596 13.4711C25.9163 13.3645 26.1915 13.3096 26.4694 13.3096Z" fill="white"/>
<path d="M74.6606 78.4696C74.6593 78.1917 74.7129 77.9162 74.8184 77.6591C74.9238 77.4019 75.079 77.1681 75.2751 76.9711C75.4711 76.7742 75.7042 76.6178 75.9608 76.5112C76.2175 76.4045 76.4927 76.3496 76.7706 76.3496H85.6406L74.6406 87.3496L74.6606 78.4696Z" fill="#002950"/>
<path d="M68.8599 7.00026H61.8599C61.3212 5.73375 60.4211 4.65416 59.2721 3.89647C58.1231 3.13878 56.7762 2.73662 55.3999 2.74026H54.5999C53.2287 2.7425 51.8884 3.14743 50.7453 3.90475C49.6022 4.66208 48.7067 5.73846 48.1699 7.00026H41.1699C40.6395 7.00026 40.1308 7.21097 39.7557 7.58605C39.3806 7.96112 39.1699 8.46983 39.1699 9.00026V15.5703C39.1699 16.1007 39.3806 16.6094 39.7557 16.9845C40.1308 17.3595 40.6395 17.5703 41.1699 17.5703H68.8599C69.3904 17.5703 69.8991 17.3595 70.2741 16.9845C70.6492 16.6094 70.8599 16.1007 70.8599 15.5703V9.00026C70.8599 8.46983 70.6492 7.96112 70.2741 7.58605C69.8991 7.21097 69.3904 7.00026 68.8599 7.00026Z" fill="#FFB74D"/>
<path d="M47.4708 38.6099C47.3238 38.6101 47.1787 38.578 47.0456 38.5157C46.9125 38.4535 46.7948 38.3627 46.7008 38.2499L41.6008 32.0899C41.5171 31.9882 41.4544 31.871 41.4162 31.745C41.3779 31.6191 41.3649 31.4868 41.3779 31.3558C41.3909 31.2248 41.4297 31.0976 41.492 30.9816C41.5542 30.8657 41.6388 30.7631 41.7408 30.6799C41.9455 30.5141 42.2074 30.4358 42.4695 30.462C42.7317 30.4882 42.9729 30.6168 43.1408 30.8199L48.2408 36.9999C48.325 37.1009 48.3884 37.2176 48.4274 37.3432C48.4665 37.4688 48.4804 37.6009 48.4683 37.7318C48.4562 37.8628 48.4184 37.9901 48.3571 38.1065C48.2957 38.2228 48.212 38.3259 48.1108 38.4099C47.9268 38.5482 47.7007 38.6188 47.4708 38.6099Z" fill="#CED8DF"/>
<path d="M42.3893 38.63C42.1591 38.6281 41.9366 38.5469 41.7593 38.4C41.5563 38.2321 41.4277 37.9909 41.4015 37.7288C41.3752 37.4666 41.4535 37.2047 41.6193 37L46.6693 30.81C46.7495 30.7007 46.851 30.6089 46.9677 30.54C47.0844 30.4712 47.2139 30.4268 47.3483 30.4095C47.4827 30.3923 47.6192 30.4025 47.7496 30.4396C47.8799 30.4767 48.0013 30.5399 48.1065 30.6254C48.2116 30.7109 48.2983 30.8168 48.3613 30.9368C48.4242 31.0568 48.4621 31.1884 48.4727 31.3235C48.4832 31.4586 48.4662 31.5944 48.4226 31.7227C48.3791 31.8511 48.3099 31.9692 48.2193 32.07L43.2193 38.26C43.12 38.3828 42.993 38.4804 42.8488 38.5447C42.7045 38.609 42.547 38.6382 42.3893 38.63Z" fill="#CED8DF"/>
<path d="M40 38.6301C39.7698 38.6283 39.5473 38.547 39.37 38.4001L34 34.0001V37.5701C34 37.8353 33.8946 38.0897 33.7071 38.2772C33.5196 38.4648 33.2652 38.5701 33 38.5701C32.7348 38.5701 32.4804 38.4648 32.2929 38.2772C32.1054 38.0897 32 37.8353 32 37.5701V25.8701C32 25.6049 32.1054 25.3505 32.2929 25.163C32.4804 24.9755 32.7348 24.8701 33 24.8701H36C39 24.8701 40.64 26.8701 40.64 28.9301C40.6423 29.4521 40.536 29.9689 40.3276 30.4475C40.1193 30.9261 39.8136 31.3561 39.43 31.7101C38.4971 32.5325 37.2825 32.9624 36.04 32.9101H35.73L40.55 36.8501C40.7075 36.9754 40.8236 37.1453 40.883 37.3376C40.9424 37.5299 40.9424 37.7357 40.8829 37.928C40.8235 38.1203 40.7075 38.2902 40.5499 38.4154C40.3924 38.5407 40.2007 38.6155 40 38.6301ZM34 30.9101H36.11C36.8345 30.939 37.545 30.7046 38.11 30.2501C38.2911 30.0814 38.4353 29.8771 38.5334 29.6499C38.6315 29.4227 38.6814 29.1776 38.68 28.9301C38.68 27.9301 37.86 26.8701 36.04 26.8701H34V30.9101Z" fill="#CED8DF"/>
<path d="M79.3108 49.2002H32.8008C32.5356 49.2002 32.2812 49.0948 32.0937 48.9073C31.9061 48.7198 31.8008 48.4654 31.8008 48.2002C31.8008 47.935 31.9061 47.6806 32.0937 47.4931C32.2812 47.3056 32.5356 47.2002 32.8008 47.2002H79.3108C79.576 47.2002 79.8303 47.3056 80.0179 47.4931C80.2054 47.6806 80.3108 47.935 80.3108 48.2002C80.3108 48.4654 80.2054 48.7198 80.0179 48.9073C79.8303 49.0948 79.576 49.2002 79.3108 49.2002Z" fill="#CED8DF"/>
<path d="M79.3108 56.5996H32.8008C32.5356 56.5996 32.2812 56.4943 32.0937 56.3067C31.9061 56.1192 31.8008 55.8648 31.8008 55.5996C31.8008 55.3344 31.9061 55.08 32.0937 54.8925C32.2812 54.705 32.5356 54.5996 32.8008 54.5996H79.3108C79.576 54.5996 79.8303 54.705 80.0179 54.8925C80.2054 55.08 80.3108 55.3344 80.3108 55.5996C80.3108 55.8648 80.2054 56.1192 80.0179 56.3067C79.8303 56.4943 79.576 56.5996 79.3108 56.5996Z" fill="#CED8DF"/>
<path d="M67.6908 64H32.8008C32.5356 64 32.2812 63.8946 32.0937 63.7071C31.9061 63.5196 31.8008 63.2652 31.8008 63C31.8008 62.7348 31.9061 62.4804 32.0937 62.2929C32.2812 62.1054 32.5356 62 32.8008 62H67.6908C67.956 62 68.2104 62.1054 68.3979 62.2929C68.5854 62.4804 68.6908 62.7348 68.6908 63C68.6908 63.2652 68.5854 63.5196 68.3979 63.7071C68.2104 63.8946 67.956 64 67.6908 64Z" fill="#CED8DF"/>
<path d="M40 73H32V75H40V73Z" fill="#FFB74D"/>
</svg>
