<svg width="60" height="60" viewBox="0 0 60 60" fill="none" xmlns="http://www.w3.org/2000/svg">
<path d="M43 30.5H17C16.337 30.5 15.7011 30.2366 15.2322 29.7678C14.7634 29.2989 14.5 28.663 14.5 28V16C14.5 11.8891 16.133 7.94666 19.0398 5.03984C21.9467 2.13303 25.8891 0.5 30 0.5C34.1109 0.5 38.0533 2.13303 40.9602 5.03984C43.867 7.94666 45.5 11.8891 45.5 16V28C45.5 28.663 45.2366 29.2989 44.7678 29.7678C44.2989 30.2366 43.663 30.5 43 30.5ZM19.5 25.5H40.5V16C40.5 13.2152 39.3938 10.5445 37.4246 8.57538C35.4555 6.60625 32.7848 5.5 30 5.5C27.2152 5.5 24.5445 6.60625 22.5754 8.57538C20.6062 10.5445 19.5 13.2152 19.5 16V25.5Z" fill="#0089FF"/>
<path d="M9 24H51V42C51 46.2435 49.3143 50.3131 46.3137 53.3137C43.3131 56.3143 39.2435 58 35 58H25C20.7565 58 16.6869 56.3143 13.6863 53.3137C10.6857 50.3131 9 46.2435 9 42V24Z" fill="#FFB74D"/>
<path d="M35 38C35 37.1477 34.7821 36.3096 34.3671 35.5652C33.9521 34.8208 33.3537 34.1948 32.6287 33.7467C31.9037 33.2987 31.0762 33.0434 30.2247 33.0051C29.3733 32.9667 28.5262 33.1467 27.7639 33.5279C27.0016 33.909 26.3494 34.4787 25.8692 35.1828C25.389 35.8869 25.0967 36.7021 25.0202 37.551C24.9437 38.3998 25.0854 39.2541 25.4319 40.0328C25.7784 40.8115 26.3182 41.4886 27 42V49H33V42C33.621 41.5343 34.125 40.9303 34.4721 40.2361C34.8193 39.5418 35 38.7762 35 38Z" fill="white"/>
</svg>
