<svg width="106" height="106" viewBox="0 0 106 106" fill="none" xmlns="http://www.w3.org/2000/svg">
<path d="M77.9302 23H8.93018C6.72104 23 4.93018 24.7909 4.93018 27V84C4.93018 86.2091 6.72104 88 8.93018 88H77.9302C80.1393 88 81.9302 86.2091 81.9302 84V27C81.9302 24.7909 80.1393 23 77.9302 23Z" fill="#0089FF"/>
<path d="M75.9302 27H10.9302C10.3997 27 9.89103 27.2107 9.51596 27.5858C9.14089 27.9609 8.93018 28.4696 8.93018 29V79C8.93018 79.5304 9.14089 80.0391 9.51596 80.4142C9.89103 80.7893 10.3997 81 10.9302 81H68.9302L77.9302 72V29C77.9302 28.4696 77.7195 27.9609 77.3444 27.5858C76.9693 27.2107 76.4606 27 75.9302 27Z" fill="white"/>
<path d="M77.9302 72H70.9302C70.3997 72 69.891 72.2107 69.516 72.5858C69.1409 72.9609 68.9302 73.4696 68.9302 74V81L77.9302 72Z" fill="#002950"/>
<path d="M10.9302 27H75.9302C76.4606 27 76.9693 27.2107 77.3444 27.5858C77.7195 27.9609 77.9302 28.4696 77.9302 29V37H8.93018V29C8.93018 28.4696 9.14089 27.9609 9.51596 27.5858C9.89103 27.2107 10.3997 27 10.9302 27Z" fill="#FFB42B"/>
<path d="M28.8398 33.0003H28.7498C27.3913 32.7586 26.121 32.1613 25.0683 31.2692C24.0156 30.3771 23.218 29.2219 22.7568 27.9214C22.2956 26.6209 22.1872 25.2214 22.4426 23.8653C22.698 22.5093 23.3081 21.2451 24.2109 20.2015C25.1136 19.1579 26.2768 18.3721 27.5819 17.9241C28.8871 17.4761 30.2876 17.3818 31.641 17.651C32.9944 17.9201 34.2523 18.5431 35.2867 19.4563C36.3211 20.3696 37.0951 21.5407 37.5298 22.8503C37.5709 22.9763 37.5602 23.1134 37.5002 23.2315C37.4402 23.3496 37.3358 23.4391 37.2098 23.4803C37.1482 23.5022 37.0827 23.5115 37.0174 23.5077C36.9521 23.504 36.8881 23.4871 36.8294 23.4582C36.7707 23.4293 36.7184 23.389 36.6755 23.3395C36.6326 23.29 36.6001 23.2325 36.5798 23.1703C36.2023 22.0301 35.5295 21.0103 34.6299 20.2145C33.7302 19.4187 32.6359 18.8754 31.4581 18.6399C30.2804 18.4043 29.0613 18.4849 27.9248 18.8735C26.7883 19.262 25.775 19.9446 24.988 20.8519C24.2009 21.7591 23.6682 22.8587 23.444 24.0386C23.2199 25.2186 23.3122 26.4369 23.7117 27.5696C24.1112 28.7022 24.8035 29.7089 25.7183 30.4872C26.6332 31.2654 27.7378 31.7875 28.9198 32.0003C29.0524 32.0109 29.1754 32.0737 29.2617 32.175C29.3479 32.2763 29.3904 32.4077 29.3798 32.5403C29.3692 32.6729 29.3064 32.7958 29.2051 32.8821C29.1038 32.9684 28.9724 33.0109 28.8398 33.0003Z" fill="#002950"/>
<path d="M55.8398 33.0003H55.7498C54.3913 32.7586 53.121 32.1613 52.0683 31.2692C51.0156 30.3771 50.218 29.2219 49.7568 27.9214C49.2956 26.6209 49.1872 25.2214 49.4426 23.8653C49.698 22.5093 50.3081 21.2451 51.2109 20.2015C52.1136 19.1579 53.2768 18.3721 54.5819 17.9241C55.8871 17.4761 57.2876 17.3818 58.641 17.651C59.9944 17.9201 61.2523 18.5431 62.2867 19.4563C63.3211 20.3696 64.0951 21.5407 64.5298 22.8503C64.5709 22.9763 64.5602 23.1134 64.5002 23.2315C64.4402 23.3496 64.3358 23.4391 64.2098 23.4803C64.1482 23.5022 64.0827 23.5115 64.0174 23.5077C63.9521 23.504 63.8881 23.4871 63.8294 23.4582C63.7707 23.4293 63.7184 23.389 63.6755 23.3395C63.6326 23.29 63.6001 23.2325 63.5798 23.1703C63.2023 22.0301 62.5295 21.0103 61.6299 20.2145C60.7302 19.4187 59.6359 18.8754 58.4582 18.6399C57.2804 18.4043 56.0613 18.4849 54.9248 18.8735C53.7883 19.262 52.775 19.9446 51.988 20.8519C51.2009 21.7591 50.6682 22.8587 50.444 24.0386C50.2199 25.2186 50.3122 26.4369 50.7117 27.5696C51.1112 28.7022 51.8035 29.7089 52.7183 30.4872C53.6332 31.2654 54.7378 31.7875 55.9198 32.0003C56.0524 32.0109 56.1754 32.0737 56.2617 32.175C56.3479 32.2763 56.3905 32.4077 56.3798 32.5403C56.3692 32.6729 56.3064 32.7958 56.2051 32.8821C56.1038 32.9684 55.9725 33.0109 55.8398 33.0003Z" fill="#002950"/>
<path d="M80.77 48C91.8157 48 100.77 39.0457 100.77 28C100.77 16.9543 91.8157 8 80.77 8C69.7243 8 60.77 16.9543 60.77 28C60.77 39.0457 69.7243 48 80.77 48Z" fill="white"/>
<path d="M80.77 50C76.4188 50 72.1654 48.7097 68.5475 46.2923C64.9296 43.875 62.1098 40.439 60.4447 36.419C58.7796 32.3991 58.3439 27.9756 59.1928 23.708C60.0416 19.4404 62.1369 15.5204 65.2137 12.4437C68.2904 9.36691 72.2105 7.27161 76.478 6.42273C80.7456 5.57386 85.1691 6.00953 89.1891 7.67466C93.209 9.33979 96.645 12.1596 99.0624 15.7775C101.48 19.3953 102.77 23.6488 102.77 28C102.77 33.8348 100.452 39.4306 96.3264 43.5564C92.2006 47.6822 86.6048 50 80.77 50ZM80.77 10C77.21 10 73.7299 11.0557 70.7698 13.0336C67.8097 15.0114 65.5026 17.8226 64.1402 21.1117C62.7778 24.4008 62.4214 28.02 63.1159 31.5116C63.8104 35.0033 65.5248 38.2106 68.0421 40.7279C70.5595 43.2453 73.7667 44.9596 77.2584 45.6541C80.7501 46.3487 84.3693 45.9922 87.6583 44.6298C90.9474 43.2675 93.7586 40.9604 95.7365 38.0003C97.7143 35.0402 98.77 31.5601 98.77 28C98.77 23.2261 96.8736 18.6477 93.498 15.2721C90.1223 11.8964 85.5439 10 80.77 10Z" fill="#0089FF"/>
<path d="M80.77 17.3896C83.1012 17.3896 85.337 18.3157 86.9855 19.9642C88.6339 21.6126 89.56 23.8484 89.56 26.1796V34.9996H72V26.1796C72 23.8484 72.9261 21.6126 74.5745 19.9642C76.223 18.3157 78.4587 17.3896 80.79 17.3896H80.77Z" fill="#FFB42B"/>
<path d="M89.56 34.9697H71.98C71.3118 34.9697 70.77 35.5115 70.77 36.1797C70.77 36.848 71.3118 37.3897 71.98 37.3897H89.56C90.2283 37.3897 90.77 36.848 90.77 36.1797C90.77 35.5115 90.2283 34.9697 89.56 34.9697Z" fill="#FFB42B"/>
<path d="M80.77 39.82C81.009 39.82 81.2457 39.7729 81.4665 39.6815C81.6873 39.59 81.8879 39.4559 82.0569 39.2869C82.2259 39.1179 82.36 38.9173 82.4515 38.6965C82.5429 38.4757 82.59 38.239 82.59 38H79C78.9998 38.4742 79.1847 38.9297 79.5153 39.2696C79.8458 39.6095 80.296 39.807 80.77 39.82Z" fill="#FFB42B"/>
<path d="M81.9998 17.3899C81.9723 17.0867 81.8324 16.8048 81.6076 16.5994C81.3827 16.3941 81.0893 16.2803 80.7848 16.2803C80.4804 16.2803 80.1869 16.3941 79.9621 16.5994C79.7373 16.8048 79.5974 17.0867 79.5698 17.3899V17.9999H81.9998V17.3899Z" fill="#FFB42B"/>
<path d="M56.1499 62.4798L56.9999 66.9998C57.0594 67.3181 57.0098 67.6472 56.8592 67.9339C56.7086 68.2206 56.4658 68.4481 56.1699 68.5798C53.6864 69.6704 50.9879 70.1837 48.2774 70.081C45.567 69.9783 42.915 69.2624 40.5212 67.987C38.1273 66.7116 36.0538 64.91 34.4566 62.7177C32.8594 60.5253 31.7801 57.9994 31.2999 55.3298C31.037 53.9698 30.9363 52.5835 30.9999 51.1998C31.0194 50.878 31.1462 50.5721 31.3601 50.3309C31.5741 50.0898 31.8628 49.9274 32.1799 49.8698L36.6699 49.0498C36.9818 48.9929 37.3037 49.0404 37.5857 49.185C37.8678 49.3297 38.0942 49.5633 38.2299 49.8498L39.6599 52.8498C39.7959 53.1381 39.8324 53.4634 39.7636 53.7747C39.6948 54.0859 39.5247 54.3656 39.2799 54.5698L36.4099 56.9998C37.3898 59.5018 39.0944 61.6542 41.3054 63.181C43.5165 64.7079 46.1331 65.5397 48.8199 65.5698L49.9999 61.9998C50.0945 61.6907 50.2918 61.4231 50.5591 61.2413C50.8263 61.0594 51.1477 60.9743 51.4699 60.9998L54.8099 61.2598C55.1404 61.2752 55.4552 61.4055 55.6998 61.6283C55.9445 61.851 56.1037 62.1522 56.1499 62.4798Z" fill="#0089FF"/>
</svg>
