<svg width="106" height="106" viewBox="0 0 106 106" fill="none" xmlns="http://www.w3.org/2000/svg">
<path d="M97.0602 84H78.9302V23L100.78 78.54C101.018 79.1461 101.104 79.801 101.031 80.448C100.958 81.0949 100.728 81.7142 100.362 82.2522C99.9953 82.7902 99.5029 83.2306 98.9276 83.5352C98.3522 83.8398 97.7112 83.9993 97.0602 84Z" fill="#E0F2FF"/>
<path d="M77.9302 23H8.93018C6.72104 23 4.93018 24.7909 4.93018 27V84C4.93018 86.2091 6.72104 88 8.93018 88H77.9302C80.1393 88 81.9302 86.2091 81.9302 84V27C81.9302 24.7909 80.1393 23 77.9302 23Z" fill="#0089FF"/>
<path d="M75.9302 27H10.9302C10.3997 27 9.89103 27.2107 9.51596 27.5858C9.14089 27.9609 8.93018 28.4696 8.93018 29V79C8.93018 79.5304 9.14089 80.0391 9.51596 80.4142C9.89103 80.7893 10.3997 81 10.9302 81H68.9302L77.9302 72V29C77.9302 28.4696 77.7195 27.9609 77.3444 27.5858C76.9693 27.2107 76.4606 27 75.9302 27Z" fill="white"/>
<path d="M77.9302 72H70.9302C70.3997 72 69.891 72.2107 69.516 72.5858C69.1409 72.9609 68.9302 73.4696 68.9302 74V81L77.9302 72Z" fill="#002950"/>
<path d="M10.9302 27H75.9302C76.4606 27 76.9693 27.2107 77.3444 27.5858C77.7195 27.9609 77.9302 28.4696 77.9302 29V37H8.93018V29C8.93018 28.4696 9.14089 27.9609 9.51596 27.5858C9.89103 27.2107 10.3997 27 10.9302 27Z" fill="#FFB42B"/>
<path d="M28.8398 33.0003H28.7498C27.3913 32.7586 26.121 32.1613 25.0683 31.2692C24.0156 30.3771 23.218 29.2219 22.7568 27.9214C22.2956 26.6209 22.1872 25.2214 22.4426 23.8653C22.698 22.5093 23.3081 21.2451 24.2109 20.2015C25.1136 19.1579 26.2768 18.3721 27.5819 17.9241C28.8871 17.4761 30.2876 17.3818 31.641 17.651C32.9944 17.9201 34.2523 18.5431 35.2867 19.4563C36.3211 20.3696 37.0951 21.5407 37.5298 22.8503C37.5709 22.9763 37.5602 23.1134 37.5002 23.2315C37.4402 23.3496 37.3358 23.4391 37.2098 23.4803C37.0852 23.5217 36.9492 23.5125 36.8313 23.4545C36.7134 23.3964 36.6231 23.2944 36.5798 23.1703C36.2023 22.0301 35.5295 21.0103 34.6299 20.2145C33.7302 19.4187 32.6359 18.8754 31.4581 18.6399C30.2804 18.4043 29.0613 18.4849 27.9248 18.8735C26.7883 19.262 25.775 19.9446 24.988 20.8519C24.2009 21.7591 23.6682 22.8587 23.444 24.0386C23.2199 25.2186 23.3122 26.4369 23.7117 27.5696C24.1112 28.7022 24.8035 29.7089 25.7183 30.4872C26.6332 31.2654 27.7378 31.7875 28.9198 32.0003C29.0524 32.0109 29.1754 32.0737 29.2617 32.175C29.3479 32.2763 29.3904 32.4077 29.3798 32.5403C29.3692 32.6729 29.3064 32.7958 29.2051 32.8821C29.1038 32.9684 28.9724 33.0109 28.8398 33.0003Z" fill="#002950"/>
<path d="M55.8398 33.0003H55.7498C54.3913 32.7586 53.121 32.1613 52.0683 31.2692C51.0156 30.3771 50.218 29.2219 49.7568 27.9214C49.2956 26.6209 49.1872 25.2214 49.4426 23.8653C49.698 22.5093 50.3081 21.2451 51.2109 20.2015C52.1136 19.1579 53.2768 18.3721 54.5819 17.9241C55.8871 17.4761 57.2876 17.3818 58.641 17.651C59.9944 17.9201 61.2523 18.5431 62.2867 19.4563C63.3211 20.3696 64.0951 21.5407 64.5298 22.8503C64.5709 22.9763 64.5602 23.1134 64.5002 23.2315C64.4402 23.3496 64.3358 23.4391 64.2098 23.4803C64.1482 23.5022 64.0827 23.5115 64.0174 23.5077C63.9521 23.504 63.8881 23.4871 63.8294 23.4582C63.7707 23.4293 63.7184 23.389 63.6755 23.3395C63.6326 23.29 63.6001 23.2325 63.5798 23.1703C63.2023 22.0301 62.5295 21.0103 61.6299 20.2145C60.7302 19.4187 59.6359 18.8754 58.4582 18.6399C57.2804 18.4043 56.0613 18.4849 54.9248 18.8735C53.7883 19.262 52.775 19.9446 51.988 20.8519C51.2009 21.7591 50.6682 22.8587 50.444 24.0386C50.2199 25.2186 50.3122 26.4369 50.7117 27.5696C51.1112 28.7022 51.8035 29.7089 52.7183 30.4872C53.6332 31.2654 54.7378 31.7875 55.9198 32.0003C56.0524 32.0109 56.1754 32.0737 56.2617 32.175C56.3479 32.2763 56.3905 32.4077 56.3798 32.5403C56.3692 32.6729 56.3064 32.7958 56.2051 32.8821C56.1038 32.9684 55.9725 33.0109 55.8398 33.0003Z" fill="#002950"/>
<path d="M46.9302 55H39.9302C39.3779 55 38.9302 55.4477 38.9302 56V61C38.9302 61.5523 39.3779 62 39.9302 62H46.9302C47.4825 62 47.9302 61.5523 47.9302 61V56C47.9302 55.4477 47.4825 55 46.9302 55Z" fill="#F7F9FB"/>
<path d="M20.9302 44H13.9302C13.3779 44 12.9302 44.4477 12.9302 45V50C12.9302 50.5523 13.3779 51 13.9302 51H20.9302C21.4825 51 21.9302 50.5523 21.9302 50V45C21.9302 44.4477 21.4825 44 20.9302 44Z" fill="#F7F9FB"/>
<path d="M33.9302 44H26.9302C26.3779 44 25.9302 44.4477 25.9302 45V50C25.9302 50.5523 26.3779 51 26.9302 51H33.9302C34.4825 51 34.9302 50.5523 34.9302 50V45C34.9302 44.4477 34.4825 44 33.9302 44Z" fill="#F7F9FB"/>
<path d="M46.9302 44H39.9302C39.3779 44 38.9302 44.4477 38.9302 45V50C38.9302 50.5523 39.3779 51 39.9302 51H46.9302C47.4825 51 47.9302 50.5523 47.9302 50V45C47.9302 44.4477 47.4825 44 46.9302 44Z" fill="#F7F9FB"/>
<path d="M59.9302 44H52.9302C52.3779 44 51.9302 44.4477 51.9302 45V50C51.9302 50.5523 52.3779 51 52.9302 51H59.9302C60.4825 51 60.9302 50.5523 60.9302 50V45C60.9302 44.4477 60.4825 44 59.9302 44Z" fill="#F7F9FB"/>
<path d="M72.9302 44H65.9302C65.3779 44 64.9302 44.4477 64.9302 45V50C64.9302 50.5523 65.3779 51 65.9302 51H72.9302C73.4825 51 73.9302 50.5523 73.9302 50V45C73.9302 44.4477 73.4825 44 72.9302 44Z" fill="#F7F9FB"/>
<path d="M20.9302 55H13.9302C13.3779 55 12.9302 55.4477 12.9302 56V61C12.9302 61.5523 13.3779 62 13.9302 62H20.9302C21.4825 62 21.9302 61.5523 21.9302 61V56C21.9302 55.4477 21.4825 55 20.9302 55Z" fill="#F7F9FB"/>
<path d="M33.9302 55H26.9302C26.3779 55 25.9302 55.4477 25.9302 56V61C25.9302 61.5523 26.3779 62 26.9302 62H33.9302C34.4825 62 34.9302 61.5523 34.9302 61V56C34.9302 55.4477 34.4825 55 33.9302 55Z" fill="#FFB42B"/>
<path d="M59.9302 55H52.9302C52.3779 55 51.9302 55.4477 51.9302 56V61C51.9302 61.5523 52.3779 62 52.9302 62H59.9302C60.4825 62 60.9302 61.5523 60.9302 61V56C60.9302 55.4477 60.4825 55 59.9302 55Z" fill="#F7F9FB"/>
<path d="M72.9302 55H65.9302C65.3779 55 64.9302 55.4477 64.9302 56V61C64.9302 61.5523 65.3779 62 65.9302 62H72.9302C73.4825 62 73.9302 61.5523 73.9302 61V56C73.9302 55.4477 73.4825 55 72.9302 55Z" fill="#F7F9FB"/>
<path d="M20.9302 66H13.9302C13.3779 66 12.9302 66.4477 12.9302 67V72C12.9302 72.5523 13.3779 73 13.9302 73H20.9302C21.4825 73 21.9302 72.5523 21.9302 72V67C21.9302 66.4477 21.4825 66 20.9302 66Z" fill="#F7F9FB"/>
<path d="M33.9302 66H26.9302C26.3779 66 25.9302 66.4477 25.9302 67V72C25.9302 72.5523 26.3779 73 26.9302 73H33.9302C34.4825 73 34.9302 72.5523 34.9302 72V67C34.9302 66.4477 34.4825 66 33.9302 66Z" fill="#F7F9FB"/>
<path d="M46.9302 66H39.9302C39.3779 66 38.9302 66.4477 38.9302 67V72C38.9302 72.5523 39.3779 73 39.9302 73H46.9302C47.4825 73 47.9302 72.5523 47.9302 72V67C47.9302 66.4477 47.4825 66 46.9302 66Z" fill="#F7F9FB"/>
<path d="M30.4302 65.9304C28.1766 65.9278 26.0162 65.0314 24.4227 63.4379C22.8292 61.8444 21.9328 59.684 21.9302 57.4304C21.9302 51.9004 25.5202 48.2604 31.5302 47.6904C31.6894 47.6816 31.846 47.7334 31.9685 47.8355C32.0909 47.9375 32.1702 48.0823 32.1902 48.2404C32.2041 48.3981 32.1552 48.5549 32.054 48.6766C31.9529 48.7984 31.8077 48.8752 31.6502 48.8904C23.9702 49.6204 23.1402 55.1004 23.1402 57.4304C23.2101 59.3184 24.0093 61.1058 25.3697 62.4168C26.7301 63.7278 28.5459 64.4603 30.4352 64.4603C32.3245 64.4603 34.1402 63.7278 35.5006 62.4168C36.8611 61.1058 37.6603 59.3184 37.7302 57.4304C37.7499 56.4256 37.4948 55.4344 36.9926 54.5638C36.4903 53.6933 35.7599 52.9764 34.8802 52.4904C33.8112 51.9613 32.6175 51.7356 31.4291 51.8379C30.2407 51.9402 29.1031 52.3665 28.1402 53.0704C28.0749 53.1239 27.9991 53.1631 27.9177 53.1853C27.8364 53.2075 27.7512 53.2123 27.6678 53.1994C27.5844 53.1865 27.5047 53.1561 27.4339 53.1103C27.363 53.0645 27.3026 53.0042 27.2567 52.9335C27.2107 52.8627 27.1801 52.7831 27.167 52.6997C27.1539 52.6164 27.1585 52.5312 27.1805 52.4498C27.2026 52.3683 27.2415 52.2924 27.2949 52.2271C27.3483 52.1617 27.4148 52.1083 27.4902 52.0704C28.6396 51.2463 29.9924 50.7521 31.4024 50.641C32.8124 50.53 34.2259 50.8064 35.4902 51.4404C36.5599 52.03 37.4484 52.9004 38.0599 53.9577C38.6714 55.015 38.9826 56.2192 38.9602 57.4404C38.9576 58.558 38.7348 59.6641 38.3047 60.6955C37.8747 61.727 37.2456 62.6637 36.4535 63.4521C35.6614 64.2404 34.7218 64.8651 33.6883 65.2903C32.6549 65.7155 31.5477 65.9331 30.4302 65.9304Z" fill="#0089FF"/>
</svg>
