<svg width="60" height="60" viewBox="0 0 60 60" fill="none" xmlns="http://www.w3.org/2000/svg">
<path d="M43 3H17C13.6863 3 11 5.68629 11 9V51C11 54.3137 13.6863 57 17 57H43C46.3137 57 49 54.3137 49 51V9C49 5.68629 46.3137 3 43 3Z" fill="#FFB74D"/>
<path d="M30 52.5C31.3807 52.5 32.5 51.3807 32.5 50C32.5 48.6193 31.3807 47.5 30 47.5C28.6193 47.5 27.5 48.6193 27.5 50C27.5 51.3807 28.6193 52.5 30 52.5Z" fill="white"/>
<path d="M28 12H25V9H21V12H18V16H21V19H25V16H28V12Z" fill="#0089FF"/>
<path d="M42 25H18V29H42V25Z" fill="white"/>
<path d="M42 35H18V39H42V35Z" fill="white"/>
</svg>
